<?xml version="1.0" encoding="utf-8"?>
<!-- Generator: Adobe Illustrator 27.0.0, SVG Export Plug-In . SVG Version: 6.00 Build 0)  -->
<svg version="1.1" xmlns="http://www.w3.org/2000/svg" xmlns:xlink="http://www.w3.org/1999/xlink" x="0px" y="0px"
	 viewBox="0 0 359.8 158.5" style="enable-background:new 0 0 359.8 158.5;" xml:space="preserve">
<style type="text/css">
	.st0{fill:#FFFFFF;stroke:#C7C7C6;stroke-width:0.3;}
	.st1{clip-path:url(#SVGID_00000012447850175801732410000017300739694268725133_);}
	.st2{fill:#F3C17C;}
	.st3{fill:#7DA1C1;}
	.st4{clip-path:url(#SVGID_00000080195388678229711020000011406316525726792321_);}
	.st5{fill:#D896B1;}
	.st6{clip-path:url(#SVGID_00000058566221867309569040000007140574524139590585_);}
	.st7{clip-path:url(#SVGID_00000008844199009068261790000009873574397244063382_);}
	.st8{fill:#E2E2E2;}
	.st9{clip-path:url(#SVGID_00000067920938873738415020000007699817930405393571_);}
	.st10{clip-path:url(#SVGID_00000160153836218578090100000007779609741403644565_);}
	.st11{fill:#787878;}
	.st12{fill:none;stroke:#757576;stroke-width:0.5;}
	.st13{fill:#757576;}
	.st14{fill:url(#SVGID_00000060015782473832320060000007658073750766436490_);}
	.st15{fill:none;stroke:#848484;stroke-width:0.3;}
	.st16{fill:url(#SVGID_00000168834900560626163440000011243619873675263926_);}
	.st17{display:none;}
	.st18{display:inline;opacity:0.54;fill:#FFFFFF;}
</style>
<g id="Layer_2">
	<path class="st0" d="M10,0.2h339.9c5.3,0,9.7,4.3,9.7,9.7v138.7c0,5.3-4.3,9.7-9.7,9.7H10c-5.3,0-9.7-4.3-9.7-9.7V9.9
		C0.3,4.6,4.6,0.2,10,0.2z"/>
	<g>
		<defs>
			<rect id="SVGID_1_" x="16.3" y="19.8" width="42.9" height="13.2"/>
		</defs>
		<clipPath id="SVGID_00000142159800917002851210000006980663163863084172_">
			<use xlink:href="#SVGID_1_"  style="overflow:visible;"/>
		</clipPath>
		<g style="clip-path:url(#SVGID_00000142159800917002851210000006980663163863084172_);">
			<path class="st2" d="M57.8,33H32.5c-0.8,0-1.4-0.6-1.4-1.4V21.2c0-0.8,0.6-1.4,1.4-1.4h25.3c0.8,0,1.4,0.6,1.4,1.4v10.4
				C59.2,32.4,58.6,33,57.8,33z"/>
			<path class="st3" d="M22.4,20.5c-0.8,0.3-1.3,0.8-1.6,1.5c-0.1,0.5-0.1,1.6,0,2.3c0.1,0.5,0.1,0.5,0,0.6c-0.3,0.3-0.1,1,0.3,1.3
				c0.1,0,0.2,0.3,0.3,0.5c0.1,0.2,0.3,0.6,0.4,0.8C22,28,22,28,22,28.6c0,0.9-0.3,1.1-1.7,1.7c-0.4,0.2-1,0.4-1.2,0.5
				c-0.9,0.4-1.5,1.1-1.6,1.9l0,0.4h6h6l0-0.3c-0.1-0.5-0.4-1-0.8-1.4c-0.4-0.3-1.1-0.7-2.2-1.1c-0.8-0.3-1.2-0.6-1.4-0.9
				C25,29.2,25,29,25,28.5c0-0.6,0-0.7,0.2-0.9c0.2-0.2,0.5-1,0.5-1.2c0-0.1,0.1-0.2,0.2-0.2c0.3-0.1,0.5-0.9,0.3-1.3
				c-0.1-0.2-0.1-0.3,0-0.8c0.1-0.3,0.1-0.9,0.1-1.3c0-0.6,0-0.7-0.2-1.1c-0.2-0.4-0.5-0.7-0.9-0.8c-0.1,0-0.4-0.2-0.5-0.3
				c-0.1-0.1-0.3-0.2-0.5-0.3C23.8,20.4,22.8,20.4,22.4,20.5z"/>
		</g>
	</g>
	<g>
		<defs>
			<rect id="SVGID_00000024706479661526008820000001806490144830174629_" x="199.6" y="19" width="42.9" height="13.2"/>
		</defs>
		<clipPath id="SVGID_00000031209881538947943270000010260662645180012215_">
			<use xlink:href="#SVGID_00000024706479661526008820000001806490144830174629_"  style="overflow:visible;"/>
		</clipPath>
		<g style="clip-path:url(#SVGID_00000031209881538947943270000010260662645180012215_);">
			<path class="st2" d="M241.1,32.2h-25.3c-0.8,0-1.4-0.6-1.4-1.4V20.4c0-0.8,0.6-1.4,1.4-1.4h25.3c0.8,0,1.4,0.6,1.4,1.4v10.4
				C242.5,31.6,241.9,32.2,241.1,32.2z"/>
			<path class="st5" d="M207,33c-1.8,0-3.6,0-5.4,0c-0.3,0-0.4-0.1-0.3-0.4c0.2-0.9,0.7-1.4,1.4-1.8c0.5-0.3,1-0.5,1.5-0.7
				c0.4-0.2,0.8-0.3,1.1-0.7c0.1-0.1,0.2-0.2,0.3-0.4c0.1-0.2,0.1-0.4-0.2-0.4c-0.5-0.1-1-0.2-1.5-0.4c-0.4-0.2-0.4-0.3-0.2-0.7
				c0.3-0.7,0.2-1.4,0.2-2.1c0.1-1.1,0.1-2.3,0.4-3.4c0.5-1.5,1.7-2.3,3.1-2.2c0.1,0,0.2,0,0.4,0.1c0.4,0.2,0.8,0.3,1.2,0.4
				c0.6,0.1,1,0.6,1.2,1.2c0.2,0.6,0.3,1.2,0.4,1.8c0.1,1,0,2,0.1,3.1c0,0.5,0,0.9,0.3,1.3c0.1,0.3-0.1,0.4-0.2,0.5
				c-0.5,0.3-1,0.4-1.6,0.5c-0.4,0.1-0.5,0.2-0.3,0.6c0.2,0.3,0.5,0.5,0.8,0.7c0.5,0.2,1,0.4,1.5,0.7c0.9,0.4,1.6,1,1.8,2
				c0.1,0.5,0.1,0.5-0.4,0.5C210.6,33,208.8,33,207,33z"/>
		</g>
	</g>
	<g>
		<defs>
			<rect id="SVGID_00000026160377340936756260000014068602720520060088_" x="16.3" y="52.8" width="42.9" height="13.2"/>
		</defs>
		<clipPath id="SVGID_00000074425108981782972710000011913231422560758693_">
			<use xlink:href="#SVGID_00000026160377340936756260000014068602720520060088_"  style="overflow:visible;"/>
		</clipPath>
		<g style="clip-path:url(#SVGID_00000074425108981782972710000011913231422560758693_);">
			<path class="st2" d="M57.8,66.1H32.5c-0.8,0-1.4-0.6-1.4-1.4V54.3c0-0.8,0.6-1.4,1.4-1.4h25.3c0.8,0,1.4,0.6,1.4,1.4v10.4
				C59.2,65.4,58.6,66.1,57.8,66.1z"/>
			<path class="st3" d="M22.4,53.6c-0.8,0.3-1.3,0.8-1.6,1.5c-0.1,0.5-0.1,1.6,0,2.3c0.1,0.5,0.1,0.5,0,0.6c-0.3,0.3-0.1,1,0.3,1.3
				c0.1,0,0.2,0.3,0.3,0.5c0.1,0.2,0.3,0.6,0.4,0.8C22,61,22,61,22,61.6c0,0.9-0.3,1.1-1.7,1.7c-0.4,0.2-1,0.4-1.2,0.5
				c-0.9,0.4-1.5,1.1-1.6,1.9l0,0.4h6h6l0-0.3c-0.1-0.5-0.4-1-0.8-1.4c-0.4-0.3-1.1-0.7-2.2-1.1c-0.8-0.3-1.2-0.6-1.4-0.9
				C25,62.2,25,62,25,61.5c0-0.6,0-0.7,0.2-0.9c0.2-0.2,0.5-1,0.5-1.2c0-0.1,0.1-0.2,0.2-0.2c0.3-0.1,0.5-0.9,0.3-1.3
				c-0.1-0.2-0.1-0.3,0-0.8c0.1-0.3,0.1-0.9,0.1-1.3c0-0.6,0-0.7-0.2-1.1c-0.2-0.4-0.5-0.7-0.9-0.8c-0.1,0-0.4-0.2-0.5-0.3
				c-0.1-0.1-0.3-0.2-0.5-0.3C23.8,53.4,22.8,53.4,22.4,53.6z"/>
		</g>
	</g>
	<g>
		<defs>
			<rect id="SVGID_00000065048791699121238310000011482094840449018275_" x="199.6" y="52" width="42.9" height="13.2"/>
		</defs>
		<clipPath id="SVGID_00000029046910280247841140000009307798749823068334_">
			<use xlink:href="#SVGID_00000065048791699121238310000011482094840449018275_"  style="overflow:visible;"/>
		</clipPath>
		<g style="clip-path:url(#SVGID_00000029046910280247841140000009307798749823068334_);">
			<path class="st8" d="M241.1,65.2h-25.3c-0.8,0-1.4-0.6-1.4-1.4V53.4c0-0.8,0.6-1.4,1.4-1.4h25.3c0.8,0,1.4,0.6,1.4,1.4v10.4
				C242.5,64.6,241.9,65.2,241.1,65.2z"/>
			<path class="st3" d="M205.7,52.7c-0.8,0.3-1.3,0.8-1.6,1.5c-0.1,0.5-0.1,1.6,0,2.3c0.1,0.5,0.1,0.5,0,0.6c-0.3,0.3-0.1,1,0.3,1.3
				c0.1,0,0.2,0.3,0.3,0.5c0.1,0.2,0.3,0.6,0.4,0.8c0.3,0.4,0.3,0.4,0.2,1c0,0.9-0.3,1.1-1.7,1.7c-0.4,0.2-1,0.4-1.2,0.5
				c-0.9,0.4-1.5,1.1-1.6,1.9l0,0.4h6h6l0-0.3c-0.1-0.5-0.4-1-0.8-1.4c-0.4-0.3-1.1-0.7-2.2-1.1c-0.8-0.3-1.2-0.6-1.4-0.9
				c-0.1-0.2-0.1-0.4-0.1-0.9c0-0.6,0-0.7,0.2-0.9c0.2-0.2,0.5-1,0.5-1.2c0-0.1,0.1-0.2,0.2-0.2c0.3-0.1,0.5-0.9,0.3-1.3
				c-0.1-0.2-0.1-0.3,0-0.8c0.1-0.3,0.1-0.9,0.1-1.3c0-0.6,0-0.7-0.2-1.1c-0.2-0.4-0.5-0.7-0.9-0.8c-0.1,0-0.4-0.2-0.5-0.3
				c-0.1-0.1-0.3-0.2-0.5-0.3C207.1,52.6,206.1,52.6,205.7,52.7z"/>
		</g>
	</g>
	<g>
		<defs>
			<rect id="SVGID_00000033358956183645760280000009685924584652640417_" x="16.3" y="85.9" width="42.9" height="13.2"/>
		</defs>
		<clipPath id="SVGID_00000142172175196107783390000001635651060223799681_">
			<use xlink:href="#SVGID_00000033358956183645760280000009685924584652640417_"  style="overflow:visible;"/>
		</clipPath>
		<g style="clip-path:url(#SVGID_00000142172175196107783390000001635651060223799681_);">
			<path class="st8" d="M57.8,99.1H32.5c-0.8,0-1.4-0.6-1.4-1.4V87.3c0-0.8,0.6-1.4,1.4-1.4h25.3c0.8,0,1.4,0.6,1.4,1.4v10.4
				C59.2,98.4,58.6,99.1,57.8,99.1z"/>
			<path class="st3" d="M22.4,86.6c-0.8,0.3-1.3,0.8-1.6,1.5c-0.1,0.5-0.1,1.6,0,2.3c0.1,0.5,0.1,0.5,0,0.6c-0.3,0.3-0.1,1,0.3,1.3
				c0.1,0,0.2,0.3,0.3,0.5c0.1,0.2,0.3,0.6,0.4,0.8C22,94,22,94,22,94.6c0,0.9-0.3,1.1-1.7,1.7c-0.4,0.2-1,0.4-1.2,0.5
				c-0.9,0.4-1.5,1.1-1.6,1.9l0,0.4h6h6l0-0.3c-0.1-0.5-0.4-1-0.8-1.4c-0.4-0.3-1.1-0.7-2.2-1.1c-0.8-0.3-1.2-0.6-1.4-0.9
				C25,95.3,25,95.1,25,94.5c0-0.6,0-0.7,0.2-0.9c0.2-0.2,0.5-1,0.5-1.2c0-0.1,0.1-0.2,0.2-0.2c0.3-0.1,0.5-0.9,0.3-1.3
				c-0.1-0.2-0.1-0.3,0-0.8c0.1-0.3,0.1-0.9,0.1-1.3c0-0.6,0-0.7-0.2-1.1c-0.2-0.4-0.5-0.7-0.9-0.8c-0.1,0-0.4-0.2-0.5-0.3
				c-0.1-0.1-0.3-0.2-0.5-0.3C23.8,86.4,22.8,86.5,22.4,86.6z"/>
		</g>
	</g>
	<g>
		<defs>
			<rect id="SVGID_00000158747725038327270610000013152995896738319244_" x="199.6" y="85" width="42.9" height="13.2"/>
		</defs>
		<clipPath id="SVGID_00000174590274854009571730000004501440872828135054_">
			<use xlink:href="#SVGID_00000158747725038327270610000013152995896738319244_"  style="overflow:visible;"/>
		</clipPath>
		<g style="clip-path:url(#SVGID_00000174590274854009571730000004501440872828135054_);">
			<path class="st2" d="M241.1,98.3h-25.3c-0.8,0-1.4-0.6-1.4-1.4V86.5c0-0.8,0.6-1.4,1.4-1.4h25.3c0.8,0,1.4,0.6,1.4,1.4v10.4
				C242.5,97.6,241.9,98.3,241.1,98.3z"/>
			<path class="st5" d="M207,99.1c-1.8,0-3.6,0-5.4,0c-0.3,0-0.4-0.1-0.3-0.4c0.2-0.9,0.7-1.4,1.4-1.8c0.5-0.3,1-0.5,1.5-0.7
				c0.4-0.2,0.8-0.3,1.1-0.7c0.1-0.1,0.2-0.2,0.3-0.4c0.1-0.2,0.1-0.4-0.2-0.4c-0.5-0.1-1-0.2-1.5-0.4c-0.4-0.2-0.4-0.3-0.2-0.7
				c0.3-0.7,0.2-1.4,0.2-2.1c0.1-1.1,0.1-2.3,0.4-3.4c0.5-1.5,1.7-2.3,3.1-2.2c0.1,0,0.2,0,0.4,0.1c0.4,0.2,0.8,0.3,1.2,0.4
				c0.6,0.1,1,0.6,1.2,1.2c0.2,0.6,0.3,1.2,0.4,1.8c0.1,1,0,2,0.1,3.1c0,0.5,0,0.9,0.3,1.3c0.1,0.3-0.1,0.4-0.2,0.5
				c-0.5,0.3-1,0.4-1.6,0.5c-0.4,0.1-0.5,0.2-0.3,0.6c0.2,0.3,0.5,0.5,0.8,0.7c0.5,0.2,1,0.4,1.5,0.7c0.9,0.4,1.6,1,1.8,2
				c0.1,0.5,0.1,0.5-0.4,0.5C210.6,99.1,208.8,99.1,207,99.1z"/>
		</g>
	</g>
	<path class="st11" d="M68.6,33.9h-1.5l4.4-12H73l4.4,12h-1.5l-3.6-10.1h-0.1L68.6,33.9z M69.1,29.2h6.1v1.3h-6.1V29.2z M80.4,28.4
		v5.4h-1.4v-9h1.3v1.4h0.1c0.2-0.5,0.5-0.8,1-1.1c0.4-0.3,1-0.4,1.7-0.4c0.6,0,1.1,0.1,1.6,0.4c0.5,0.2,0.8,0.6,1.1,1.1
		c0.3,0.5,0.4,1.1,0.4,1.9v5.7h-1.4v-5.6c0-0.7-0.2-1.3-0.6-1.7c-0.4-0.4-0.9-0.6-1.5-0.6c-0.4,0-0.8,0.1-1.2,0.3
		c-0.3,0.2-0.6,0.5-0.8,0.8C80.5,27.5,80.4,27.9,80.4,28.4z M92.4,37.4c-0.7,0-1.2-0.1-1.7-0.3c-0.5-0.2-0.9-0.4-1.2-0.7
		c-0.3-0.3-0.6-0.6-0.8-0.9l1.1-0.8c0.1,0.2,0.3,0.4,0.5,0.6c0.2,0.2,0.5,0.4,0.8,0.6c0.3,0.2,0.8,0.2,1.3,0.2
		c0.7,0,1.3-0.2,1.8-0.5c0.5-0.4,0.7-0.9,0.7-1.7v-1.8h-0.1c-0.1,0.2-0.2,0.4-0.4,0.6c-0.2,0.2-0.4,0.5-0.8,0.6
		c-0.3,0.2-0.8,0.3-1.4,0.3c-0.7,0-1.4-0.2-2-0.5c-0.6-0.3-1-0.8-1.4-1.5c-0.3-0.7-0.5-1.5-0.5-2.4c0-0.9,0.2-1.7,0.5-2.4
		c0.3-0.7,0.8-1.2,1.4-1.6c0.6-0.4,1.2-0.6,2-0.6c0.6,0,1.1,0.1,1.4,0.3c0.3,0.2,0.6,0.4,0.8,0.7c0.2,0.2,0.3,0.4,0.4,0.6h0.1v-1.4
		h1.3v9.3c0,0.8-0.2,1.4-0.5,1.9c-0.3,0.5-0.8,0.8-1.4,1.1C93.7,37.3,93.1,37.4,92.4,37.4z M92.3,32.5c0.6,0,1-0.1,1.4-0.4
		c0.4-0.3,0.7-0.6,0.9-1.1c0.2-0.5,0.3-1,0.3-1.7c0-0.6-0.1-1.2-0.3-1.7c-0.2-0.5-0.5-0.9-0.9-1.2c-0.4-0.3-0.9-0.4-1.4-0.4
		c-0.6,0-1.1,0.1-1.5,0.4c-0.4,0.3-0.7,0.7-0.9,1.2c-0.2,0.5-0.3,1.1-0.3,1.7c0,0.6,0.1,1.2,0.3,1.7c0.2,0.5,0.5,0.9,0.9,1.1
		C91.2,32.3,91.7,32.5,92.3,32.5z M102.6,34c-0.9,0-1.6-0.2-2.2-0.6c-0.6-0.4-1.1-0.9-1.4-1.6c-0.3-0.7-0.5-1.5-0.5-2.4
		c0-0.9,0.2-1.7,0.5-2.4c0.3-0.7,0.8-1.3,1.4-1.7c0.6-0.4,1.3-0.6,2.1-0.6c0.5,0,0.9,0.1,1.4,0.2c0.5,0.2,0.9,0.4,1.2,0.8
		c0.4,0.3,0.7,0.8,0.9,1.4c0.2,0.6,0.3,1.3,0.3,2.1v0.6h-6.9v-1.2h5.5c0-0.5-0.1-1-0.3-1.4c-0.2-0.4-0.5-0.7-0.9-0.9
		c-0.4-0.2-0.8-0.3-1.3-0.3c-0.6,0-1,0.1-1.4,0.4c-0.4,0.3-0.7,0.6-0.9,1.1c-0.2,0.4-0.3,0.9-0.3,1.4v0.8c0,0.7,0.1,1.3,0.4,1.7
		c0.2,0.5,0.6,0.8,1,1.1c0.4,0.2,0.9,0.4,1.5,0.4c0.4,0,0.7-0.1,1-0.2c0.3-0.1,0.6-0.3,0.8-0.5c0.2-0.2,0.4-0.5,0.5-0.8l1.3,0.4
		c-0.1,0.5-0.4,0.9-0.7,1.2c-0.3,0.3-0.7,0.6-1.2,0.8C103.7,33.9,103.2,34,102.6,34z M109.8,21.8v12h-1.4v-12H109.8z M78.2,60.9
		c0,1.3-0.2,2.4-0.7,3.3c-0.5,0.9-1.1,1.6-1.9,2.1c-0.8,0.5-1.7,0.8-2.7,0.8c-1,0-1.9-0.3-2.7-0.8c-0.8-0.5-1.4-1.2-1.9-2.1
		c-0.5-0.9-0.7-2-0.7-3.3c0-1.3,0.2-2.4,0.7-3.3c0.5-0.9,1.1-1.6,1.9-2.1c0.8-0.5,1.7-0.8,2.7-0.8c1,0,1.9,0.3,2.7,0.8
		c0.8,0.5,1.4,1.2,1.9,2.1C78,58.5,78.2,59.6,78.2,60.9z M76.8,60.9c0-1-0.2-1.9-0.5-2.6c-0.3-0.7-0.8-1.3-1.4-1.6
		c-0.6-0.4-1.2-0.6-2-0.6c-0.7,0-1.4,0.2-2,0.6c-0.6,0.4-1.1,0.9-1.4,1.6C69.2,59,69,59.8,69,60.9c0,1,0.2,1.9,0.5,2.6
		c0.3,0.7,0.8,1.3,1.4,1.6c0.6,0.4,1.2,0.6,2,0.6c0.7,0,1.4-0.2,2-0.6c0.6-0.4,1.1-0.9,1.4-1.6C76.6,62.8,76.8,61.9,76.8,60.9z
		 M81.9,54.9v12h-1.4v-12H81.9z M84.4,66.9v-9h1.4v9H84.4z M85.1,56.4c-0.3,0-0.5-0.1-0.7-0.3c-0.2-0.2-0.3-0.4-0.3-0.7
		c0-0.3,0.1-0.5,0.3-0.7c0.2-0.2,0.4-0.3,0.7-0.3c0.3,0,0.5,0.1,0.7,0.3c0.2,0.2,0.3,0.4,0.3,0.7c0,0.3-0.1,0.5-0.3,0.7
		C85.6,56.3,85.4,56.4,85.1,56.4z M95.7,57.9l-3.3,9h-1.4l-3.3-9h1.5l2.5,7.2h0.1l2.5-7.2H95.7z M101,67.1c-0.9,0-1.6-0.2-2.2-0.6
		c-0.6-0.4-1.1-0.9-1.4-1.6c-0.3-0.7-0.5-1.5-0.5-2.4c0-0.9,0.2-1.7,0.5-2.4c0.3-0.7,0.8-1.3,1.4-1.7c0.6-0.4,1.3-0.6,2.1-0.6
		c0.5,0,0.9,0.1,1.4,0.2c0.5,0.2,0.9,0.4,1.2,0.8c0.4,0.3,0.7,0.8,0.9,1.4c0.2,0.6,0.3,1.3,0.3,2.1v0.6h-6.9v-1.2h5.5
		c0-0.5-0.1-1-0.3-1.4c-0.2-0.4-0.5-0.7-0.9-0.9c-0.4-0.2-0.8-0.3-1.3-0.3c-0.6,0-1,0.1-1.4,0.4c-0.4,0.3-0.7,0.6-0.9,1.1
		c-0.2,0.4-0.3,0.9-0.3,1.4v0.8c0,0.7,0.1,1.3,0.4,1.7c0.2,0.5,0.6,0.8,1,1.1c0.4,0.2,0.9,0.4,1.5,0.4c0.4,0,0.7-0.1,1-0.2
		c0.3-0.1,0.6-0.3,0.8-0.5c0.2-0.2,0.4-0.5,0.5-0.8l1.3,0.4c-0.1,0.5-0.4,0.9-0.7,1.2c-0.3,0.3-0.7,0.6-1.2,0.8
		C102.1,67,101.6,67.1,101,67.1z M106.8,66.9v-9h1.3v1.4h0.1c0.2-0.4,0.5-0.8,0.9-1.1c0.4-0.3,0.9-0.4,1.5-0.4c0.1,0,0.2,0,0.4,0
		c0.2,0,0.3,0,0.3,0v1.4c0,0-0.2,0-0.3-0.1c-0.2,0-0.3,0-0.5,0c-0.4,0-0.8,0.1-1.2,0.3c-0.3,0.2-0.6,0.4-0.8,0.8
		c-0.2,0.3-0.3,0.7-0.3,1.1v5.7H106.8z M68.1,99.9v-12h4.2c0.8,0,1.5,0.1,2.1,0.4c0.5,0.3,0.9,0.7,1.2,1.2c0.3,0.5,0.4,1,0.4,1.6
		c0,0.5-0.1,0.9-0.3,1.3c-0.2,0.3-0.4,0.6-0.7,0.8c-0.3,0.2-0.6,0.3-1,0.4v0.1c0.4,0,0.7,0.2,1.1,0.4c0.4,0.2,0.7,0.6,0.9,1
		c0.3,0.4,0.4,1,0.4,1.6c0,0.6-0.1,1.1-0.4,1.6c-0.3,0.5-0.7,0.9-1.3,1.1c-0.6,0.3-1.4,0.4-2.3,0.4H68.1z M69.5,98.6h2.9
		c1,0,1.6-0.2,2-0.6c0.4-0.4,0.6-0.8,0.6-1.3c0-0.4-0.1-0.8-0.3-1.1c-0.2-0.3-0.5-0.6-0.9-0.8c-0.4-0.2-0.8-0.3-1.4-0.3h-3V98.6z
		 M69.5,93.2h2.7c0.4,0,0.8-0.1,1.2-0.3c0.4-0.2,0.6-0.4,0.8-0.7c0.2-0.3,0.3-0.7,0.3-1.1c0-0.5-0.2-1-0.6-1.3
		c-0.4-0.4-0.9-0.6-1.7-0.6h-2.7V93.2z M81.3,100.1c-0.6,0-1.1-0.1-1.6-0.3c-0.5-0.2-0.8-0.5-1.1-0.9c-0.3-0.4-0.4-0.9-0.4-1.5
		c0-0.5,0.1-0.9,0.3-1.3c0.2-0.3,0.5-0.6,0.8-0.8c0.3-0.2,0.7-0.3,1.1-0.4c0.4-0.1,0.8-0.2,1.2-0.2c0.5-0.1,1-0.1,1.3-0.2
		c0.3,0,0.6-0.1,0.8-0.2c0.2-0.1,0.2-0.2,0.2-0.5v0c0-0.6-0.2-1-0.5-1.3c-0.3-0.3-0.8-0.5-1.4-0.5c-0.7,0-1.2,0.1-1.6,0.4
		c-0.4,0.3-0.6,0.6-0.8,0.9l-1.3-0.5c0.2-0.5,0.5-1,0.9-1.3c0.4-0.3,0.8-0.5,1.3-0.6c0.5-0.1,0.9-0.2,1.4-0.2c0.3,0,0.6,0,1,0.1
		c0.4,0.1,0.7,0.2,1.1,0.4c0.4,0.2,0.7,0.5,0.9,1c0.2,0.4,0.4,1,0.4,1.7v5.9H84v-1.2H84c-0.1,0.2-0.3,0.4-0.5,0.6
		c-0.2,0.2-0.5,0.4-0.9,0.6C82.3,100,81.8,100.1,81.3,100.1z M81.5,98.9c0.5,0,1-0.1,1.4-0.3c0.4-0.2,0.7-0.5,0.9-0.8
		c0.2-0.3,0.3-0.7,0.3-1.1v-1.3c-0.1,0.1-0.2,0.1-0.4,0.2c-0.2,0.1-0.4,0.1-0.7,0.1c-0.3,0-0.5,0.1-0.7,0.1c-0.2,0-0.4,0.1-0.6,0.1
		c-0.4,0-0.7,0.1-1,0.2c-0.3,0.1-0.6,0.3-0.8,0.5c-0.2,0.2-0.3,0.5-0.3,0.8c0,0.5,0.2,0.8,0.5,1.1C80.5,98.8,81,98.9,81.5,98.9z
		 M87.9,99.9v-9h1.3v1.4h0.1c0.2-0.4,0.5-0.8,0.9-1.1c0.4-0.3,0.9-0.4,1.5-0.4c0.1,0,0.2,0,0.4,0c0.2,0,0.3,0,0.3,0v1.4
		c0,0-0.2,0-0.3-0.1c-0.2,0-0.3,0-0.5,0c-0.4,0-0.8,0.1-1.2,0.3c-0.3,0.2-0.6,0.4-0.8,0.8c-0.2,0.3-0.3,0.7-0.3,1.1v5.7H87.9z
		 M98.6,90.9v1.2h-4.7v-1.2H98.6z M95.3,88.7h1.4v8.6c0,0.4,0.1,0.7,0.2,0.9c0.1,0.2,0.3,0.3,0.4,0.4c0.2,0.1,0.4,0.1,0.6,0.1
		c0.2,0,0.3,0,0.4,0c0.1,0,0.2,0,0.2,0l0.3,1.2c-0.1,0-0.2,0.1-0.4,0.1c-0.2,0-0.4,0.1-0.6,0.1c-0.4,0-0.8-0.1-1.1-0.3
		c-0.4-0.2-0.7-0.4-0.9-0.8c-0.2-0.3-0.4-0.8-0.4-1.3V88.7z M68.1,120.9h1.7l4.1,10H74l4.1-10h1.7v12h-1.4v-9.1h-0.1l-3.8,9.1h-1.3
		l-3.8-9.1h-0.1v9.1h-1.4V120.9z M85.2,133.1c-0.6,0-1.1-0.1-1.6-0.3c-0.5-0.2-0.8-0.5-1.1-0.9c-0.3-0.4-0.4-0.9-0.4-1.5
		c0-0.5,0.1-0.9,0.3-1.3c0.2-0.3,0.5-0.6,0.8-0.8c0.3-0.2,0.7-0.3,1.1-0.4c0.4-0.1,0.8-0.2,1.2-0.2c0.5-0.1,1-0.1,1.3-0.2
		c0.3,0,0.6-0.1,0.8-0.2c0.2-0.1,0.2-0.2,0.2-0.5v0c0-0.6-0.2-1-0.5-1.3c-0.3-0.3-0.8-0.5-1.4-0.5c-0.7,0-1.2,0.1-1.6,0.4
		c-0.4,0.3-0.6,0.6-0.8,0.9l-1.3-0.5c0.2-0.5,0.5-1,0.9-1.3c0.4-0.3,0.8-0.5,1.3-0.6c0.5-0.1,0.9-0.2,1.4-0.2c0.3,0,0.6,0,1,0.1
		c0.4,0.1,0.7,0.2,1.1,0.4c0.4,0.2,0.7,0.5,0.9,1c0.2,0.4,0.4,1,0.4,1.7v5.9H88v-1.2h-0.1c-0.1,0.2-0.3,0.4-0.5,0.6
		c-0.2,0.2-0.5,0.4-0.9,0.6C86.2,133.1,85.8,133.1,85.2,133.1z M85.5,131.9c0.5,0,1-0.1,1.4-0.3c0.4-0.2,0.7-0.5,0.9-0.8
		c0.2-0.3,0.3-0.7,0.3-1.1v-1.3c-0.1,0.1-0.2,0.1-0.4,0.2c-0.2,0.1-0.4,0.1-0.7,0.1c-0.3,0-0.5,0.1-0.7,0.1c-0.2,0-0.4,0.1-0.6,0.1
		c-0.4,0-0.7,0.1-1,0.2c-0.3,0.1-0.6,0.3-0.8,0.5c-0.2,0.2-0.3,0.5-0.3,0.8c0,0.5,0.2,0.8,0.5,1.1C84.4,131.8,84.9,131.9,85.5,131.9
		z M91.9,132.9v-9h1.3v1.4h0.1c0.2-0.4,0.5-0.8,0.9-1.1c0.4-0.3,0.9-0.4,1.5-0.4c0.1,0,0.2,0,0.4,0c0.2,0,0.3,0,0.3,0v1.4
		c0,0-0.2,0-0.3-0.1c-0.2,0-0.3,0-0.5,0c-0.4,0-0.8,0.1-1.2,0.3c-0.3,0.2-0.6,0.4-0.8,0.8c-0.2,0.3-0.3,0.7-0.3,1.1v5.7H91.9z
		 M102.5,123.9v1.2h-4.7v-1.2H102.5z M99.2,121.8h1.4v8.6c0,0.4,0.1,0.7,0.2,0.9c0.1,0.2,0.3,0.3,0.4,0.4c0.2,0.1,0.4,0.1,0.6,0.1
		c0.2,0,0.3,0,0.4,0c0.1,0,0.2,0,0.2,0l0.3,1.2c-0.1,0-0.2,0.1-0.4,0.1c-0.2,0-0.4,0.1-0.6,0.1c-0.4,0-0.8-0.1-1.1-0.3
		c-0.4-0.2-0.7-0.4-0.9-0.8c-0.2-0.3-0.4-0.8-0.4-1.3V121.8z M107.3,133.1c-0.6,0-1.1-0.1-1.6-0.3c-0.5-0.2-0.8-0.5-1.1-0.9
		c-0.3-0.4-0.4-0.9-0.4-1.5c0-0.5,0.1-0.9,0.3-1.3c0.2-0.3,0.5-0.6,0.8-0.8c0.3-0.2,0.7-0.3,1.1-0.4c0.4-0.1,0.8-0.2,1.2-0.2
		c0.5-0.1,1-0.1,1.3-0.2c0.3,0,0.6-0.1,0.8-0.2c0.2-0.1,0.2-0.2,0.2-0.5v0c0-0.6-0.2-1-0.5-1.3c-0.3-0.3-0.8-0.5-1.4-0.5
		c-0.7,0-1.2,0.1-1.6,0.4c-0.4,0.3-0.6,0.6-0.8,0.9l-1.3-0.5c0.2-0.5,0.5-1,0.9-1.3c0.4-0.3,0.8-0.5,1.3-0.6
		c0.5-0.1,0.9-0.2,1.4-0.2c0.3,0,0.6,0,1,0.1c0.4,0.1,0.7,0.2,1.1,0.4c0.4,0.2,0.7,0.5,0.9,1c0.2,0.4,0.4,1,0.4,1.7v5.9H110v-1.2
		h-0.1c-0.1,0.2-0.3,0.4-0.5,0.6c-0.2,0.2-0.5,0.4-0.9,0.6C108.2,133.1,107.8,133.1,107.3,133.1z M107.5,131.9c0.5,0,1-0.1,1.4-0.3
		c0.4-0.2,0.7-0.5,0.9-0.8c0.2-0.3,0.3-0.7,0.3-1.1v-1.3c-0.1,0.1-0.2,0.1-0.4,0.2c-0.2,0.1-0.4,0.1-0.7,0.1c-0.3,0-0.5,0.1-0.7,0.1
		c-0.2,0-0.4,0.1-0.6,0.1c-0.4,0-0.7,0.1-1,0.2c-0.3,0.1-0.6,0.3-0.8,0.5c-0.2,0.2-0.3,0.5-0.3,0.8c0,0.5,0.2,0.8,0.5,1.1
		C106.5,131.8,106.9,131.9,107.5,131.9z"/>
	<path class="st11" d="M251.9,33h-1.5l4.4-12h1.5l4.4,12h-1.5l-3.6-10.1h-0.1L251.9,33z M252.4,28.3h6.1v1.3h-6.1V28.3z M262.4,33
		v-9h1.3v1.4h0.1c0.2-0.5,0.5-0.9,0.9-1.1c0.4-0.3,0.9-0.4,1.5-0.4c0.6,0,1.1,0.1,1.5,0.4c0.4,0.3,0.7,0.6,0.9,1.1h0.1
		c0.2-0.5,0.6-0.8,1-1.1c0.5-0.3,1-0.4,1.7-0.4c0.8,0,1.5,0.3,2,0.8c0.5,0.5,0.8,1.3,0.8,2.3v6h-1.4v-6c0-0.7-0.2-1.1-0.5-1.4
		c-0.4-0.3-0.8-0.4-1.3-0.4c-0.6,0-1.1,0.2-1.5,0.6c-0.3,0.4-0.5,0.9-0.5,1.4V33h-1.4v-6.2c0-0.5-0.2-0.9-0.5-1.2
		c-0.3-0.3-0.8-0.5-1.3-0.5c-0.4,0-0.7,0.1-1,0.3c-0.3,0.2-0.6,0.5-0.8,0.8c-0.2,0.3-0.3,0.7-0.3,1.2V33H262.4z M276.9,33V21h1.4
		v4.4h0.1c0.1-0.2,0.2-0.4,0.4-0.6c0.2-0.2,0.4-0.5,0.8-0.7c0.3-0.2,0.8-0.3,1.4-0.3c0.8,0,1.4,0.2,2,0.6c0.6,0.4,1,0.9,1.4,1.6
		c0.3,0.7,0.5,1.5,0.5,2.5c0,1-0.2,1.8-0.5,2.5c-0.3,0.7-0.8,1.2-1.3,1.6c-0.6,0.4-1.2,0.6-2,0.6c-0.6,0-1-0.1-1.4-0.3
		c-0.3-0.2-0.6-0.4-0.8-0.7c-0.2-0.3-0.3-0.5-0.4-0.6h-0.2V33H276.9z M278.3,28.5c0,0.7,0.1,1.3,0.3,1.8c0.2,0.5,0.5,0.9,0.9,1.2
		c0.4,0.3,0.9,0.4,1.4,0.4c0.6,0,1.1-0.2,1.4-0.5c0.4-0.3,0.7-0.7,0.9-1.2c0.2-0.5,0.3-1.1,0.3-1.7c0-0.6-0.1-1.2-0.3-1.7
		c-0.2-0.5-0.5-0.9-0.9-1.2c-0.4-0.3-0.9-0.5-1.5-0.5c-0.6,0-1,0.1-1.4,0.4c-0.4,0.3-0.7,0.7-0.9,1.2
		C278.4,27.3,278.3,27.9,278.3,28.5z M290.7,33.2c-0.9,0-1.6-0.2-2.2-0.6c-0.6-0.4-1.1-0.9-1.4-1.6c-0.3-0.7-0.5-1.5-0.5-2.4
		c0-0.9,0.2-1.7,0.5-2.4c0.3-0.7,0.8-1.3,1.4-1.7c0.6-0.4,1.3-0.6,2.1-0.6c0.5,0,0.9,0.1,1.4,0.2c0.5,0.2,0.9,0.4,1.2,0.8
		c0.4,0.3,0.7,0.8,0.9,1.4c0.2,0.6,0.3,1.3,0.3,2.1V29h-6.9v-1.2h5.5c0-0.5-0.1-1-0.3-1.4c-0.2-0.4-0.5-0.7-0.9-0.9
		c-0.4-0.2-0.8-0.3-1.3-0.3c-0.6,0-1,0.1-1.4,0.4c-0.4,0.3-0.7,0.6-0.9,1.1c-0.2,0.4-0.3,0.9-0.3,1.4v0.8c0,0.7,0.1,1.3,0.4,1.7
		c0.2,0.5,0.6,0.8,1,1.1c0.4,0.2,0.9,0.4,1.5,0.4c0.4,0,0.7-0.1,1-0.2c0.3-0.1,0.6-0.3,0.8-0.5c0.2-0.2,0.4-0.5,0.5-0.8l1.3,0.4
		c-0.1,0.5-0.4,0.9-0.7,1.2c-0.3,0.3-0.7,0.6-1.2,0.8C291.9,33.1,291.4,33.2,290.7,33.2z M296.6,33v-9h1.3v1.4h0.1
		c0.2-0.4,0.5-0.8,0.9-1.1c0.4-0.3,0.9-0.4,1.5-0.4c0.1,0,0.2,0,0.4,0c0.2,0,0.3,0,0.3,0v1.4c0,0-0.2,0-0.3-0.1c-0.2,0-0.3,0-0.5,0
		c-0.4,0-0.8,0.1-1.2,0.3c-0.3,0.2-0.6,0.4-0.8,0.8c-0.2,0.3-0.3,0.7-0.3,1.1V33H296.6z M256,54h1.5v8.6c0,0.8-0.1,1.4-0.4,2
		c-0.3,0.5-0.7,0.9-1.2,1.2c-0.5,0.3-1.1,0.4-1.8,0.4c-0.7,0-1.2-0.1-1.8-0.4c-0.5-0.2-0.9-0.6-1.2-1c-0.3-0.4-0.4-1-0.4-1.6h1.4
		c0,0.3,0.1,0.6,0.3,0.9c0.2,0.3,0.4,0.4,0.7,0.6c0.3,0.1,0.6,0.2,1,0.2c0.4,0,0.8-0.1,1.1-0.3c0.3-0.2,0.5-0.4,0.7-0.8
		c0.2-0.3,0.2-0.8,0.2-1.3V54z M263.8,66.2c-0.8,0-1.5-0.2-2.1-0.6c-0.6-0.4-1.1-0.9-1.4-1.6c-0.3-0.7-0.5-1.5-0.5-2.4
		c0-0.9,0.2-1.8,0.5-2.5c0.3-0.7,0.8-1.2,1.4-1.6c0.6-0.4,1.3-0.6,2.1-0.6c0.8,0,1.5,0.2,2.1,0.6c0.6,0.4,1.1,0.9,1.4,1.6
		c0.3,0.7,0.5,1.5,0.5,2.5c0,0.9-0.2,1.7-0.5,2.4c-0.3,0.7-0.8,1.2-1.4,1.6C265.4,66,264.6,66.2,263.8,66.2z M263.8,65
		c0.6,0,1.1-0.2,1.5-0.5c0.4-0.3,0.7-0.7,0.9-1.2c0.2-0.5,0.3-1.1,0.3-1.7c0-0.6-0.1-1.2-0.3-1.7c-0.2-0.5-0.5-0.9-0.9-1.3
		c-0.4-0.3-0.9-0.5-1.5-0.5s-1.1,0.2-1.5,0.5c-0.4,0.3-0.7,0.7-0.9,1.3c-0.2,0.5-0.3,1.1-0.3,1.7c0,0.6,0.1,1.2,0.3,1.7
		c0.2,0.5,0.5,0.9,0.9,1.2C262.7,64.8,263.2,65,263.8,65z M271.4,60.6v5.4H270V54h1.4v4.4h0.1c0.2-0.5,0.5-0.8,0.9-1.1
		c0.4-0.3,1-0.4,1.7-0.4c0.6,0,1.2,0.1,1.6,0.4c0.5,0.2,0.8,0.6,1.1,1.1c0.3,0.5,0.4,1.1,0.4,1.9v5.7h-1.4v-5.6
		c0-0.7-0.2-1.3-0.6-1.7c-0.4-0.4-0.9-0.6-1.5-0.6c-0.5,0-0.9,0.1-1.2,0.3c-0.4,0.2-0.6,0.5-0.8,0.8
		C271.5,59.7,271.4,60.1,271.4,60.6z M281.2,60.6v5.4h-1.4v-9h1.3v1.4h0.1c0.2-0.5,0.5-0.8,1-1.1c0.4-0.3,1-0.4,1.7-0.4
		c0.6,0,1.1,0.1,1.6,0.4c0.5,0.2,0.8,0.6,1.1,1.1c0.3,0.5,0.4,1.1,0.4,1.9v5.7h-1.4v-5.6c0-0.7-0.2-1.3-0.6-1.7
		c-0.4-0.4-0.9-0.6-1.5-0.6c-0.4,0-0.8,0.1-1.2,0.3c-0.3,0.2-0.6,0.5-0.8,0.8C281.3,59.7,281.2,60.1,281.2,60.6z M258,90.1
		c-0.1-0.6-0.4-1.1-0.9-1.4c-0.5-0.3-1.1-0.5-1.8-0.5c-0.5,0-1,0.1-1.4,0.3c-0.4,0.2-0.7,0.4-0.9,0.7c-0.2,0.3-0.3,0.6-0.3,1
		c0,0.3,0.1,0.6,0.2,0.8c0.2,0.2,0.4,0.4,0.6,0.6c0.2,0.1,0.5,0.3,0.8,0.4c0.3,0.1,0.5,0.2,0.7,0.2l1.2,0.3c0.3,0.1,0.7,0.2,1,0.3
		c0.4,0.1,0.8,0.3,1.1,0.6c0.4,0.2,0.6,0.6,0.9,0.9c0.2,0.4,0.3,0.9,0.3,1.4c0,0.6-0.2,1.2-0.5,1.8c-0.3,0.5-0.8,0.9-1.5,1.2
		c-0.6,0.3-1.4,0.5-2.4,0.5c-0.9,0-1.6-0.1-2.2-0.4c-0.6-0.3-1.1-0.7-1.5-1.2c-0.4-0.5-0.6-1.1-0.6-1.7h1.5c0,0.5,0.2,0.8,0.5,1.1
		c0.3,0.3,0.6,0.5,1,0.7c0.4,0.1,0.9,0.2,1.3,0.2c0.6,0,1.1-0.1,1.5-0.3c0.4-0.2,0.8-0.4,1.1-0.8c0.3-0.3,0.4-0.7,0.4-1.1
		c0-0.4-0.1-0.7-0.3-1c-0.2-0.3-0.5-0.5-0.9-0.6c-0.4-0.2-0.8-0.3-1.2-0.4l-1.5-0.4c-0.9-0.3-1.7-0.7-2.2-1.2
		c-0.5-0.5-0.8-1.2-0.8-2c0-0.7,0.2-1.3,0.5-1.8c0.4-0.5,0.9-0.9,1.5-1.2c0.6-0.3,1.3-0.4,2.1-0.4c0.8,0,1.5,0.1,2.1,0.4
		c0.6,0.3,1.1,0.6,1.4,1.1c0.4,0.5,0.5,1,0.6,1.6H258z M264.4,99.3c-0.6,0-1.1-0.1-1.6-0.3c-0.5-0.2-0.8-0.5-1.1-0.9
		c-0.3-0.4-0.4-0.9-0.4-1.5c0-0.5,0.1-0.9,0.3-1.3c0.2-0.3,0.5-0.6,0.8-0.8s0.7-0.3,1.1-0.4c0.4-0.1,0.8-0.2,1.3-0.2
		c0.5-0.1,1-0.1,1.3-0.2c0.3,0,0.6-0.1,0.7-0.2c0.2-0.1,0.2-0.2,0.2-0.5v0c0-0.6-0.2-1-0.5-1.3c-0.3-0.3-0.8-0.5-1.4-0.5
		c-0.7,0-1.2,0.1-1.6,0.4c-0.4,0.3-0.6,0.6-0.8,0.9l-1.3-0.5c0.2-0.5,0.5-1,0.9-1.3c0.4-0.3,0.8-0.5,1.3-0.6
		c0.5-0.1,0.9-0.2,1.4-0.2c0.3,0,0.6,0,1,0.1c0.4,0.1,0.7,0.2,1.1,0.4c0.4,0.2,0.7,0.5,0.9,1c0.2,0.4,0.4,1,0.4,1.7v5.9h-1.4v-1.2
		h-0.1c-0.1,0.2-0.2,0.4-0.5,0.6c-0.2,0.2-0.5,0.4-0.9,0.6C265.4,99.2,264.9,99.3,264.4,99.3z M264.6,98.1c0.5,0,1-0.1,1.4-0.3
		c0.4-0.2,0.7-0.5,0.9-0.8c0.2-0.3,0.3-0.7,0.3-1.1v-1.3c-0.1,0.1-0.2,0.1-0.4,0.2c-0.2,0.1-0.4,0.1-0.7,0.1c-0.3,0-0.5,0.1-0.7,0.1
		c-0.2,0-0.4,0.1-0.6,0.1c-0.4,0-0.7,0.1-1,0.2c-0.3,0.1-0.6,0.3-0.7,0.5c-0.2,0.2-0.3,0.5-0.3,0.8c0,0.5,0.2,0.8,0.5,1.1
		C263.6,97.9,264,98.1,264.6,98.1z M271,99.1v-9h1.3v1.4h0.1c0.2-0.4,0.5-0.8,0.9-1.1c0.4-0.3,0.9-0.4,1.5-0.4c0.1,0,0.2,0,0.4,0
		c0.2,0,0.3,0,0.3,0v1.4c0,0-0.2,0-0.3-0.1c-0.2,0-0.3,0-0.5,0c-0.4,0-0.8,0.1-1.2,0.3c-0.3,0.2-0.6,0.4-0.8,0.8
		c-0.2,0.3-0.3,0.7-0.3,1.1v5.7H271z M279.8,99.3c-0.6,0-1.1-0.1-1.6-0.3c-0.5-0.2-0.8-0.5-1.1-0.9c-0.3-0.4-0.4-0.9-0.4-1.5
		c0-0.5,0.1-0.9,0.3-1.3c0.2-0.3,0.5-0.6,0.8-0.8s0.7-0.3,1.1-0.4c0.4-0.1,0.8-0.2,1.2-0.2c0.5-0.1,1-0.1,1.3-0.2
		c0.3,0,0.6-0.1,0.8-0.2c0.2-0.1,0.2-0.2,0.2-0.5v0c0-0.6-0.2-1-0.5-1.3c-0.3-0.3-0.8-0.5-1.4-0.5c-0.7,0-1.2,0.1-1.6,0.4
		c-0.4,0.3-0.6,0.6-0.8,0.9l-1.3-0.5c0.2-0.5,0.5-1,0.9-1.3c0.4-0.3,0.8-0.5,1.3-0.6c0.5-0.1,0.9-0.2,1.4-0.2c0.3,0,0.6,0,1,0.1
		c0.4,0.1,0.7,0.2,1.1,0.4c0.4,0.2,0.7,0.5,0.9,1c0.2,0.4,0.4,1,0.4,1.7v5.9h-1.4v-1.2h-0.1c-0.1,0.2-0.3,0.4-0.5,0.6
		c-0.2,0.2-0.5,0.4-0.9,0.6C280.8,99.2,280.4,99.3,279.8,99.3z M280,98.1c0.5,0,1-0.1,1.4-0.3c0.4-0.2,0.7-0.5,0.9-0.8
		c0.2-0.3,0.3-0.7,0.3-1.1v-1.3c-0.1,0.1-0.2,0.1-0.4,0.2c-0.2,0.1-0.4,0.1-0.7,0.1c-0.3,0-0.5,0.1-0.7,0.1c-0.2,0-0.4,0.1-0.6,0.1
		c-0.4,0-0.7,0.1-1,0.2c-0.3,0.1-0.6,0.3-0.8,0.5c-0.2,0.2-0.3,0.5-0.3,0.8c0,0.5,0.2,0.8,0.5,1.1C279,97.9,279.5,98.1,280,98.1z
		 M251.4,120.1h1.7l4.1,10h0.1l4.1-10h1.7v12h-1.4V123h-0.1l-3.8,9.1h-1.3l-3.8-9.1h-0.1v9.1h-1.4V120.1z M268.5,132.3
		c-0.6,0-1.1-0.1-1.6-0.3c-0.5-0.2-0.8-0.5-1.1-0.9c-0.3-0.4-0.4-0.9-0.4-1.5c0-0.5,0.1-0.9,0.3-1.3c0.2-0.3,0.5-0.6,0.8-0.8
		c0.3-0.2,0.7-0.3,1.1-0.4c0.4-0.1,0.8-0.2,1.2-0.2c0.5-0.1,1-0.1,1.3-0.2c0.3,0,0.6-0.1,0.8-0.2c0.2-0.1,0.2-0.2,0.2-0.5v0
		c0-0.6-0.2-1-0.5-1.3c-0.3-0.3-0.8-0.5-1.4-0.5c-0.7,0-1.2,0.1-1.6,0.4c-0.4,0.3-0.6,0.6-0.8,0.9l-1.3-0.5c0.2-0.5,0.5-1,0.9-1.3
		c0.4-0.3,0.8-0.5,1.3-0.6c0.5-0.1,0.9-0.2,1.4-0.2c0.3,0,0.6,0,1,0.1c0.4,0.1,0.7,0.2,1.1,0.4c0.4,0.2,0.7,0.5,0.9,1
		c0.2,0.4,0.4,1,0.4,1.7v5.9h-1.4v-1.2h-0.1c-0.1,0.2-0.3,0.4-0.5,0.6c-0.2,0.2-0.5,0.4-0.9,0.6
		C269.5,132.2,269.1,132.3,268.5,132.3z M268.8,131.1c0.5,0,1-0.1,1.4-0.3c0.4-0.2,0.7-0.5,0.9-0.8c0.2-0.3,0.3-0.7,0.3-1.1v-1.3
		c-0.1,0.1-0.2,0.1-0.4,0.2c-0.2,0.1-0.4,0.1-0.7,0.1c-0.3,0-0.5,0.1-0.7,0.1c-0.2,0-0.4,0.1-0.6,0.1c-0.4,0-0.7,0.1-1,0.2
		c-0.3,0.1-0.6,0.3-0.8,0.5c-0.2,0.2-0.3,0.5-0.3,0.8c0,0.5,0.2,0.8,0.5,1.1C267.7,131,268.2,131.1,268.8,131.1z M275.2,132.1v-9
		h1.3v1.4h0.1c0.2-0.4,0.5-0.8,0.9-1.1c0.4-0.3,0.9-0.4,1.5-0.4c0.1,0,0.2,0,0.4,0c0.2,0,0.3,0,0.3,0v1.4c0,0-0.2,0-0.3-0.1
		c-0.2,0-0.3,0-0.5,0c-0.4,0-0.8,0.1-1.2,0.3c-0.3,0.2-0.6,0.4-0.8,0.8c-0.2,0.3-0.3,0.7-0.3,1.1v5.7H275.2z M285.8,123.1v1.2h-4.7
		v-1.2H285.8z M282.5,120.9h1.4v8.6c0,0.4,0.1,0.7,0.2,0.9c0.1,0.2,0.3,0.3,0.4,0.4c0.2,0.1,0.4,0.1,0.6,0.1c0.2,0,0.3,0,0.4,0
		c0.1,0,0.2,0,0.2,0l0.3,1.2c-0.1,0-0.2,0.1-0.4,0.1c-0.2,0-0.4,0.1-0.6,0.1c-0.4,0-0.8-0.1-1.1-0.3c-0.4-0.2-0.7-0.4-0.9-0.8
		c-0.2-0.3-0.4-0.8-0.4-1.3V120.9z M290.6,132.3c-0.6,0-1.1-0.1-1.6-0.3c-0.5-0.2-0.8-0.5-1.1-0.9c-0.3-0.4-0.4-0.9-0.4-1.5
		c0-0.5,0.1-0.9,0.3-1.3c0.2-0.3,0.5-0.6,0.8-0.8c0.3-0.2,0.7-0.3,1.1-0.4c0.4-0.1,0.8-0.2,1.2-0.2c0.5-0.1,1-0.1,1.3-0.2
		c0.3,0,0.6-0.1,0.7-0.2c0.2-0.1,0.2-0.2,0.2-0.5v0c0-0.6-0.2-1-0.5-1.3c-0.3-0.3-0.8-0.5-1.4-0.5c-0.7,0-1.2,0.1-1.6,0.4
		c-0.4,0.3-0.6,0.6-0.8,0.9l-1.3-0.5c0.2-0.5,0.5-1,0.9-1.3c0.4-0.3,0.8-0.5,1.3-0.6c0.5-0.1,0.9-0.2,1.4-0.2c0.3,0,0.6,0,1,0.1
		c0.4,0.1,0.7,0.2,1.1,0.4c0.4,0.2,0.7,0.5,0.9,1c0.2,0.4,0.4,1,0.4,1.7v5.9h-1.4v-1.2h-0.1c-0.1,0.2-0.2,0.4-0.5,0.6
		c-0.2,0.2-0.5,0.4-0.9,0.6C291.5,132.2,291.1,132.3,290.6,132.3z M290.8,131.1c0.5,0,1-0.1,1.4-0.3c0.4-0.2,0.7-0.5,0.9-0.8
		c0.2-0.3,0.3-0.7,0.3-1.1v-1.3c-0.1,0.1-0.2,0.1-0.4,0.2c-0.2,0.1-0.4,0.1-0.7,0.1c-0.3,0-0.5,0.1-0.7,0.1c-0.2,0-0.4,0.1-0.6,0.1
		c-0.4,0-0.7,0.1-1,0.2c-0.3,0.1-0.6,0.3-0.8,0.5c-0.2,0.2-0.3,0.5-0.3,0.8c0,0.5,0.2,0.8,0.5,1.1
		C289.8,131,290.2,131.1,290.8,131.1z"/>
	<circle class="st12" cx="145.9" cy="27.2" r="10.3"/>
	<path class="st13" d="M150.4,25.8c1.1,0.6,1.1,2.2,0,2.9l-5.5,3.2c-1.1,0.6-2.5-0.2-2.5-1.4v-6.3c0-1.3,1.4-2.1,2.5-1.4L150.4,25.8
		z"/>
	<circle class="st12" cx="329.2" cy="26.4" r="10.3"/>
	<path class="st13" d="M333.7,25c1.1,0.6,1.1,2.2,0,2.9l-5.5,3.2c-1.1,0.6-2.5-0.2-2.5-1.4v-6.3c0-1.3,1.4-2.1,2.5-1.4L333.7,25z"/>
	<circle class="st12" cx="145.9" cy="60.3" r="10.3"/>
	<path class="st13" d="M150.4,58.8c1.1,0.6,1.1,2.2,0,2.9l-5.5,3.2c-1.1,0.6-2.5-0.2-2.5-1.4v-6.3c0-1.3,1.4-2.1,2.5-1.4L150.4,58.8
		z"/>
	<circle class="st12" cx="329.2" cy="59.4" r="10.3"/>
	<path class="st13" d="M333.7,58c1.1,0.6,1.1,2.2,0,2.9l-5.5,3.2c-1.1,0.6-2.5-0.2-2.5-1.4v-6.3c0-1.3,1.4-2.1,2.5-1.4L333.7,58z"/>
	<circle class="st12" cx="145.9" cy="93.3" r="10.3"/>
	<path class="st13" d="M150.4,91.9c1.1,0.6,1.1,2.2,0,2.9l-5.5,3.2c-1.1,0.6-2.5-0.2-2.5-1.4v-6.3c0-1.3,1.4-2.1,2.5-1.4L150.4,91.9
		z"/>
	<circle class="st12" cx="329.2" cy="92.5" r="10.3"/>
	<path class="st13" d="M333.7,91c1.1,0.6,1.1,2.2,0,2.9l-5.5,3.2c-1.1,0.6-2.5-0.2-2.5-1.4v-6.3c0-1.3,1.4-2.1,2.5-1.4L333.7,91z"/>
	<circle class="st12" cx="145.9" cy="126.3" r="10.3"/>
	<path class="st13" d="M150.4,124.9c1.1,0.6,1.1,2.2,0,2.9l-5.5,3.2c-1.1,0.6-2.5-0.2-2.5-1.4v-6.3c0-1.3,1.4-2.1,2.5-1.4
		L150.4,124.9z"/>
	<circle class="st12" cx="329.2" cy="125.5" r="10.3"/>
	<path class="st13" d="M333.7,124.1c1.1,0.6,1.1,2.2,0,2.9l-5.5,3.2c-1.1,0.6-2.5-0.2-2.5-1.4v-6.3c0-1.3,1.4-2.1,2.5-1.4
		L333.7,124.1z"/>
	
		<linearGradient id="SVGID_00000162327591459905430820000000764737525260376742_" gradientUnits="userSpaceOnUse" x1="-134.0901" y1="107.1517" x2="-133.9066" y2="95.4814" gradientTransform="matrix(1 0 0 -1 179.16 226.5977)">
		<stop  offset="0" style="stop-color:#FFDB6D"/>
		<stop  offset="1" style="stop-color:#F9A236"/>
	</linearGradient>
	<path style="fill:url(#SVGID_00000162327591459905430820000000764737525260376742_);" d="M57.8,132.1H32.5c-0.8,0-1.4-0.6-1.4-1.4
		v-10.4c0-0.8,0.6-1.4,1.4-1.4h25.3c0.8,0,1.4,0.6,1.4,1.4v10.4C59.2,131.5,58.6,132.1,57.8,132.1z"/>
	<path d="M39.1,122.1c1.5,0,2.5,1,2.5,2.6c0,1.6-1.1,2.6-2.6,2.6h-1.5v2.4H36v-7.7H39.1z M37.6,126.2h1.1c0.9,0,1.4-0.5,1.4-1.4
		c0-0.9-0.5-1.4-1.4-1.4h-1.1L37.6,126.2z"/>
	<path d="M44.1,129.9h-1.5v-7.7h3c1.7,0,2.7,0.9,2.7,2.5c0,1-0.5,1.9-1.3,2.2l1.5,3.1h-1.7l-1.4-2.8h-1.3L44.1,129.9L44.1,129.9z
		 M44.1,125.9h1.4c0.8,0,1.2-0.5,1.2-1.2c0-0.8-0.5-1.2-1.2-1.2h-1.3L44.1,125.9L44.1,125.9z"/>
	<path d="M56.1,126c0,2.5-1.4,4-3.5,4c-2.2,0-3.5-1.5-3.5-4c0-2.5,1.4-4,3.5-4C54.7,122,56.1,123.5,56.1,126z M50.6,126
		c0,1.6,0.8,2.6,2,2.6c1.2,0,2-1,2-2.6c0-1.6-0.8-2.7-2-2.7C51.3,123.3,50.6,124.4,50.6,126z"/>
	<path class="st2" d="M57.8,132.1H32.5c-0.8,0-1.4-0.6-1.4-1.4v-10.4c0-0.8,0.6-1.4,1.4-1.4h25.3c0.8,0,1.4,0.6,1.4,1.4v10.4
		C59.2,131.5,58.6,132.1,57.8,132.1z"/>
	<path class="st5" d="M23.7,132.1c-1.8,0-3.6,0-5.4,0c-0.3,0-0.4-0.1-0.3-0.4c0.2-0.9,0.7-1.4,1.4-1.8c0.5-0.3,1-0.5,1.5-0.7
		c0.4-0.2,0.8-0.3,1.1-0.7c0.1-0.1,0.2-0.2,0.3-0.4c0.1-0.2,0.1-0.4-0.2-0.4c-0.5-0.1-1-0.2-1.5-0.4c-0.4-0.2-0.4-0.3-0.2-0.7
		c0.3-0.7,0.2-1.4,0.2-2.1c0.1-1.1,0.1-2.3,0.4-3.4c0.5-1.5,1.7-2.3,3.1-2.2c0.1,0,0.2,0,0.4,0.1c0.4,0.2,0.8,0.3,1.2,0.4
		c0.6,0.1,1,0.6,1.2,1.2c0.2,0.6,0.3,1.2,0.4,1.8c0.1,1,0,2,0.1,3.1c0,0.5,0,0.9,0.3,1.3c0.1,0.3-0.1,0.4-0.2,0.5
		c-0.5,0.3-1,0.4-1.6,0.5c-0.4,0.1-0.5,0.2-0.3,0.6c0.2,0.3,0.5,0.5,0.8,0.7c0.5,0.2,1,0.4,1.5,0.7c0.9,0.4,1.6,1,1.8,2
		c0.1,0.5,0.1,0.5-0.4,0.5C27.3,132.1,25.5,132.1,23.7,132.1z"/>
	<path class="st8" d="M241.1,131.3h-25.3c-0.8,0-1.4-0.6-1.4-1.4v-10.4c0-0.8,0.6-1.4,1.4-1.4h25.3c0.8,0,1.4,0.6,1.4,1.4v10.4
		C242.5,130.6,241.9,131.3,241.1,131.3z"/>
	<path class="st5" d="M207,131.3c-1.8,0-3.6,0-5.4,0c-0.3,0-0.4-0.1-0.3-0.4c0.2-0.9,0.7-1.4,1.4-1.8c0.5-0.3,1-0.5,1.5-0.7
		c0.4-0.2,0.8-0.3,1.1-0.7c0.1-0.1,0.2-0.2,0.3-0.4c0.1-0.2,0.1-0.4-0.2-0.4c-0.5-0.1-1-0.2-1.5-0.4c-0.4-0.2-0.4-0.3-0.2-0.7
		c0.3-0.7,0.2-1.4,0.2-2.1c0.1-1.1,0.1-2.3,0.4-3.4c0.5-1.5,1.7-2.3,3.1-2.2c0.1,0,0.2,0,0.4,0.1c0.4,0.2,0.8,0.3,1.2,0.4
		c0.6,0.1,1,0.6,1.2,1.2c0.2,0.6,0.3,1.2,0.4,1.8c0.1,1,0,2,0.1,3.1c0,0.5,0,0.9,0.3,1.3c0.1,0.3-0.1,0.4-0.2,0.5
		c-0.5,0.3-1,0.4-1.6,0.5c-0.4,0.1-0.5,0.2-0.3,0.6c0.2,0.3,0.5,0.5,0.8,0.7c0.5,0.2,1,0.4,1.5,0.7c0.9,0.4,1.6,1,1.8,2
		c0.1,0.5,0.1,0.5-0.4,0.5C210.6,131.3,208.8,131.3,207,131.3z"/>
	<path class="st15" d="M179.8,12.4v138.7"/>
	
		<linearGradient id="SVGID_00000124846490206117402970000014167732983057248160_" gradientUnits="userSpaceOnUse" x1="177.419" y1="6.1856" x2="177.419" y2="176.1165">
		<stop  offset="0" style="stop-color:#FFFFFF;stop-opacity:0"/>
		<stop  offset="0.8156" style="stop-color:#FFFFFF"/>
	</linearGradient>
	<path style="fill:url(#SVGID_00000124846490206117402970000014167732983057248160_);" d="M-3.6,0.2h362.1c5.7,0,10.3,4.9,10.3,11
		v158c0,6.1-4.6,11-10.3,11H-3.6c-5.7,0-10.3-4.9-10.3-11v-158C-13.9,5.2-9.3,0.2-3.6,0.2z"/>
</g>
<g id="Layer_3" class="st17">
	<path class="st18" d="M9.7,0h340.2c5.5,0,9.9,4.4,9.9,9.9v138.7c0,5.5-4.4,9.9-9.9,9.9H9.7c-5.5,0-9.9-4.4-9.9-9.9V9.9
		C-0.2,4.4,4.2,0,9.7,0z"/>
</g>
</svg>
